<svg width="443" height="316" viewBox="0 0 443 316" fill="none" xmlns="http://www.w3.org/2000/svg">
<path d="M60.8 204.8H70.52V206.3C69.4133 207.473 68.5067 208.68 67.8 209.92C67.1067 211.147 66.6 212.427 66.28 213.76C65.96 215.093 65.8 216.507 65.8 218H64.16C64.16 216.52 64.34 215.073 64.7 213.66C65.0733 212.233 65.6333 210.867 66.38 209.56C67.1267 208.253 68.0533 207.033 69.16 205.9L69.42 206.3H60.8V204.8ZM77.0109 218.2C75.8376 218.2 74.7976 217.927 73.8909 217.38C72.9976 216.82 72.3909 216.053 72.0709 215.08L73.6709 214.26C73.8309 214.753 74.0509 215.187 74.3309 215.56C74.6109 215.92 74.9776 216.2 75.4309 216.4C75.8976 216.6 76.4776 216.7 77.1709 216.7C77.7576 216.7 78.2509 216.593 78.6509 216.38C79.0509 216.167 79.3576 215.88 79.5709 215.52C79.7843 215.147 79.8909 214.72 79.8909 214.24C79.8909 213.76 79.7976 213.36 79.6109 213.04C79.4376 212.72 79.1576 212.487 78.7709 212.34C78.3843 212.18 77.8776 212.1 77.2509 212.1C77.1043 212.1 76.9443 212.107 76.7709 212.12C76.5976 212.12 76.4176 212.133 76.2309 212.16V210.56C76.3509 210.573 76.4643 210.58 76.5709 210.58C76.6909 210.58 76.7976 210.58 76.8909 210.58C77.8643 210.58 78.5576 210.393 78.9709 210.02C79.3843 209.633 79.5909 209.033 79.5909 208.22C79.5909 207.527 79.3776 207 78.9509 206.64C78.5243 206.28 77.9176 206.1 77.1309 206.1C76.2909 206.1 75.6509 206.287 75.2109 206.66C74.7709 207.02 74.4243 207.513 74.1709 208.14L72.6509 207.42C72.8643 206.86 73.1843 206.367 73.6109 205.94C74.0376 205.513 74.5509 205.18 75.1509 204.94C75.7643 204.7 76.4376 204.58 77.1709 204.58C78.0909 204.58 78.8509 204.74 79.4509 205.06C80.0509 205.367 80.4976 205.78 80.7909 206.3C81.0976 206.82 81.2509 207.393 81.2509 208.02C81.2509 208.5 81.1843 208.933 81.0509 209.32C80.9176 209.693 80.7309 210.02 80.4909 210.3C80.2643 210.58 80.0043 210.807 79.7109 210.98C79.4176 211.14 79.1043 211.247 78.7709 211.3V211.34C79.2109 211.353 79.5976 211.44 79.9309 211.6C80.2776 211.76 80.5709 211.973 80.8109 212.24C81.0509 212.507 81.2309 212.813 81.3509 213.16C81.4843 213.493 81.5509 213.847 81.5509 214.22C81.5509 214.993 81.3576 215.68 80.9709 216.28C80.5976 216.88 80.0709 217.353 79.3909 217.7C78.7109 218.033 77.9176 218.2 77.0109 218.2ZM89.0911 218.2C87.5978 218.2 86.4044 217.62 85.5111 216.46C84.6178 215.3 84.1711 213.613 84.1711 211.4C84.1711 209.187 84.6178 207.5 85.5111 206.34C86.4044 205.18 87.5978 204.6 89.0911 204.6C90.5978 204.6 91.7911 205.18 92.6711 206.34C93.5644 207.5 94.0111 209.187 94.0111 211.4C94.0111 213.613 93.5644 215.3 92.6711 216.46C91.7911 217.62 90.5978 218.2 89.0911 218.2ZM89.0911 216.76C89.7978 216.76 90.3911 216.56 90.8711 216.16C91.3644 215.747 91.7311 215.14 91.9711 214.34C92.2244 213.54 92.3511 212.56 92.3511 211.4C92.3511 210.24 92.2244 209.26 91.9711 208.46C91.7311 207.66 91.3644 207.06 90.8711 206.66C90.3911 206.247 89.7978 206.04 89.0911 206.04C88.3844 206.04 87.7844 206.247 87.2911 206.66C86.8111 207.06 86.4444 207.66 86.1911 208.46C85.9511 209.26 85.8311 210.24 85.8311 211.4C85.8311 212.56 85.9511 213.54 86.1911 214.34C86.4444 215.14 86.8111 215.747 87.2911 216.16C87.7844 216.56 88.3844 216.76 89.0911 216.76ZM101.253 204.6C102.359 204.6 103.293 204.893 104.053 205.48C104.813 206.053 105.386 206.853 105.773 207.88C106.159 208.893 106.353 210.067 106.353 211.4C106.353 212.88 106.159 214.127 105.773 215.14C105.386 216.14 104.813 216.9 104.053 217.42C103.306 217.94 102.379 218.2 101.273 218.2C100.179 218.2 99.2392 217.947 98.4525 217.44C97.6658 216.933 97.0792 216.193 96.6925 215.22L98.2725 214.38C98.4858 215.073 98.8325 215.633 99.3125 216.06C99.8058 216.487 100.479 216.7 101.333 216.7C102.026 216.7 102.599 216.567 103.053 216.3C103.519 216.02 103.886 215.627 104.153 215.12C104.419 214.6 104.606 213.98 104.713 213.26C104.833 212.54 104.893 211.74 104.893 210.86C104.893 210.833 104.893 210.807 104.893 210.78C104.893 210.74 104.893 210.707 104.893 210.68H104.813C104.653 211.28 104.373 211.767 103.973 212.14C103.573 212.5 103.119 212.76 102.613 212.92C102.119 213.08 101.626 213.16 101.133 213.16C100.266 213.16 99.4992 212.993 98.8325 212.66C98.1658 212.313 97.6458 211.833 97.2725 211.22C96.8992 210.607 96.7125 209.88 96.7125 209.04C96.7125 208.133 96.8925 207.353 97.2525 206.7C97.6125 206.033 98.1325 205.52 98.8125 205.16C99.4925 204.787 100.306 204.6 101.253 204.6ZM101.273 206.14C100.339 206.14 99.6258 206.4 99.1325 206.92C98.6392 207.427 98.3925 208.14 98.3925 209.06C98.3925 209.847 98.6525 210.473 99.1725 210.94C99.6925 211.393 100.393 211.62 101.273 211.62C101.846 211.62 102.346 211.507 102.773 211.28C103.213 211.04 103.553 210.72 103.793 210.32C104.033 209.907 104.153 209.433 104.153 208.9C104.153 208.34 104.033 207.853 103.793 207.44C103.553 207.027 103.213 206.707 102.773 206.48C102.346 206.253 101.846 206.14 101.273 206.14ZM110.043 215.6C110.429 215.6 110.743 215.72 110.983 215.96C111.223 216.2 111.343 216.513 111.343 216.9C111.343 217.287 111.223 217.6 110.983 217.84C110.743 218.08 110.429 218.2 110.043 218.2C109.656 218.2 109.343 218.08 109.103 217.84C108.863 217.6 108.743 217.287 108.743 216.9C108.743 216.513 108.863 216.2 109.103 215.96C109.343 215.72 109.656 215.6 110.043 215.6ZM118.435 218.2C117.262 218.2 116.315 217.933 115.595 217.4C114.889 216.867 114.342 216.127 113.955 215.18L115.515 214.36C115.729 215.053 116.055 215.62 116.495 216.06C116.949 216.487 117.609 216.7 118.475 216.7C119.089 216.7 119.609 216.587 120.035 216.36C120.475 216.133 120.815 215.813 121.055 215.4C121.295 214.973 121.415 214.467 121.415 213.88C121.415 213.253 121.302 212.733 121.075 212.32C120.862 211.893 120.549 211.573 120.135 211.36C119.722 211.147 119.215 211.04 118.615 211.04C118.189 211.04 117.789 211.087 117.415 211.18C117.055 211.26 116.729 211.393 116.435 211.58C116.142 211.767 115.889 212.013 115.675 212.32L114.275 212.06L115.055 204.8H122.475V206.3H116.415L115.895 210.46L115.855 210.64H115.895C116.215 210.307 116.622 210.04 117.115 209.84C117.622 209.64 118.222 209.54 118.915 209.54C119.755 209.54 120.482 209.72 121.095 210.08C121.722 210.427 122.209 210.92 122.555 211.56C122.902 212.2 123.075 212.947 123.075 213.8C123.075 214.48 122.962 215.093 122.735 215.64C122.509 216.187 122.189 216.653 121.775 217.04C121.362 217.413 120.869 217.7 120.295 217.9C119.735 218.1 119.115 218.2 118.435 218.2ZM125.136 204.8H134.856V206.3C133.749 207.473 132.843 208.68 132.136 209.92C131.443 211.147 130.936 212.427 130.616 213.76C130.296 215.093 130.136 216.507 130.136 218H128.496C128.496 216.52 128.676 215.073 129.036 213.66C129.409 212.233 129.969 210.867 130.716 209.56C131.463 208.253 132.389 207.033 133.496 205.9L133.756 206.3H125.136V204.8Z" fill="white"/>
<path d="M184.16 101V91.32C184.16 91.0933 184.16 90.8533 184.16 90.6C184.173 90.3333 184.187 90.06 184.2 89.78C183.747 90.22 183.22 90.6067 182.62 90.94C182.02 91.26 181.407 91.4933 180.78 91.64L180.36 90.18C180.6 90.1533 180.9 90.0667 181.26 89.92C181.633 89.76 182.02 89.5667 182.42 89.34C182.833 89.1 183.213 88.8467 183.56 88.58C183.907 88.3133 184.173 88.0533 184.36 87.8H185.76V101H184.16ZM193.733 87.6C194.84 87.6 195.773 87.8933 196.533 88.48C197.293 89.0533 197.866 89.8533 198.253 90.88C198.64 91.8933 198.833 93.0667 198.833 94.4C198.833 95.88 198.64 97.1267 198.253 98.14C197.866 99.14 197.293 99.9 196.533 100.42C195.786 100.94 194.86 101.2 193.753 101.2C192.66 101.2 191.72 100.947 190.933 100.44C190.146 99.9333 189.56 99.1933 189.173 98.22L190.753 97.38C190.966 98.0733 191.313 98.6333 191.793 99.06C192.286 99.4867 192.96 99.7 193.813 99.7C194.506 99.7 195.08 99.5667 195.533 99.3C196 99.02 196.366 98.6267 196.633 98.12C196.9 97.6 197.086 96.98 197.193 96.26C197.313 95.54 197.373 94.74 197.373 93.86C197.373 93.8333 197.373 93.8067 197.373 93.78C197.373 93.74 197.373 93.7067 197.373 93.68H197.293C197.133 94.28 196.853 94.7667 196.453 95.14C196.053 95.5 195.6 95.76 195.093 95.92C194.6 96.08 194.106 96.16 193.613 96.16C192.746 96.16 191.98 95.9933 191.313 95.66C190.646 95.3133 190.126 94.8333 189.753 94.22C189.38 93.6067 189.193 92.88 189.193 92.04C189.193 91.1333 189.373 90.3533 189.733 89.7C190.093 89.0333 190.613 88.52 191.293 88.16C191.973 87.7867 192.786 87.6 193.733 87.6ZM193.753 89.14C192.82 89.14 192.106 89.4 191.613 89.92C191.12 90.4267 190.873 91.14 190.873 92.06C190.873 92.8467 191.133 93.4733 191.653 93.94C192.173 94.3933 192.873 94.62 193.753 94.62C194.326 94.62 194.826 94.5067 195.253 94.28C195.693 94.04 196.033 93.72 196.273 93.32C196.513 92.9067 196.633 92.4333 196.633 91.9C196.633 91.34 196.513 90.8533 196.273 90.44C196.033 90.0267 195.693 89.7067 195.253 89.48C194.826 89.2533 194.326 89.14 193.753 89.14ZM206.357 101.2C204.863 101.2 203.67 100.62 202.777 99.46C201.883 98.3 201.437 96.6133 201.437 94.4C201.437 92.1867 201.883 90.5 202.777 89.34C203.67 88.18 204.863 87.6 206.357 87.6C207.863 87.6 209.057 88.18 209.937 89.34C210.83 90.5 211.277 92.1867 211.277 94.4C211.277 96.6133 210.83 98.3 209.937 99.46C209.057 100.62 207.863 101.2 206.357 101.2ZM206.357 99.76C207.063 99.76 207.657 99.56 208.137 99.16C208.63 98.7467 208.997 98.14 209.237 97.34C209.49 96.54 209.617 95.56 209.617 94.4C209.617 93.24 209.49 92.26 209.237 91.46C208.997 90.66 208.63 90.06 208.137 89.66C207.657 89.2467 207.063 89.04 206.357 89.04C205.65 89.04 205.05 89.2467 204.557 89.66C204.077 90.06 203.71 90.66 203.457 91.46C203.217 92.26 203.097 93.24 203.097 94.4C203.097 95.56 203.217 96.54 203.457 97.34C203.71 98.14 204.077 98.7467 204.557 99.16C205.05 99.56 205.65 99.76 206.357 99.76ZM214.058 101V99.7C215.378 98.7267 216.478 97.8733 217.358 97.14C218.251 96.4067 218.965 95.74 219.498 95.14C220.031 94.54 220.411 93.9733 220.638 93.44C220.865 92.8933 220.978 92.3267 220.978 91.74C220.978 90.9533 220.725 90.32 220.218 89.84C219.725 89.3467 219.045 89.1 218.178 89.1C217.271 89.1 216.545 89.4 215.998 90C215.451 90.5867 215.131 91.3733 215.038 92.36L213.638 91.52C213.758 90.7467 214.005 90.0667 214.378 89.48C214.765 88.8933 215.278 88.4333 215.918 88.1C216.571 87.7667 217.345 87.6 218.238 87.6C218.918 87.6 219.525 87.7 220.058 87.9C220.605 88.1 221.071 88.3867 221.458 88.76C221.845 89.12 222.138 89.5533 222.338 90.06C222.551 90.5667 222.658 91.1267 222.658 91.74C222.658 92.5667 222.458 93.38 222.058 94.18C221.658 94.9667 220.998 95.7933 220.078 96.66C219.158 97.5267 217.911 98.4867 216.338 99.54V99.56C216.485 99.5467 216.685 99.54 216.938 99.54C217.205 99.5267 217.465 99.52 217.718 99.52C217.985 99.5067 218.185 99.5 218.318 99.5H222.938V101H214.058ZM230.698 87.6C231.405 87.6 232.018 87.7 232.538 87.9C233.072 88.0867 233.532 88.3867 233.918 88.8C234.305 89.2 234.632 89.7267 234.898 90.38L233.418 91.08C233.218 90.4667 232.892 89.9867 232.438 89.64C231.998 89.28 231.385 89.1 230.598 89.1C230.025 89.1 229.518 89.2467 229.078 89.54C228.638 89.82 228.265 90.2133 227.958 90.72C227.652 91.2267 227.418 91.82 227.258 92.5C227.112 93.18 227.038 93.9133 227.038 94.7C227.038 94.7267 227.038 94.7667 227.038 94.82C227.038 94.8733 227.038 94.9533 227.038 95.06H227.118C227.265 94.4867 227.532 94.0267 227.918 93.68C228.318 93.32 228.765 93.06 229.258 92.9C229.765 92.7267 230.258 92.64 230.738 92.64C231.632 92.64 232.412 92.8133 233.078 93.16C233.745 93.5067 234.258 94 234.618 94.64C234.992 95.28 235.178 96.04 235.178 96.92C235.178 97.7867 234.992 98.5467 234.618 99.2C234.245 99.84 233.718 100.333 233.038 100.68C232.372 101.027 231.572 101.2 230.638 101.2C229.532 101.2 228.598 100.907 227.838 100.32C227.078 99.7333 226.505 98.9333 226.118 97.92C225.732 96.8933 225.538 95.72 225.538 94.4C225.538 92.92 225.765 91.68 226.218 90.68C226.672 89.6667 227.285 88.9 228.058 88.38C228.845 87.86 229.725 87.6 230.698 87.6ZM230.618 94.18C230.045 94.18 229.538 94.3 229.098 94.54C228.672 94.7667 228.338 95.0867 228.098 95.5C227.858 95.9 227.738 96.3667 227.738 96.9C227.738 97.4067 227.865 97.8733 228.118 98.3C228.372 98.7133 228.712 99.0467 229.138 99.3C229.578 99.54 230.072 99.66 230.618 99.66C231.525 99.66 232.232 99.42 232.738 98.94C233.245 98.4467 233.498 97.7667 233.498 96.9C233.498 96.34 233.385 95.86 233.158 95.46C232.932 95.0467 232.605 94.7333 232.178 94.52C231.752 94.2933 231.232 94.18 230.618 94.18ZM239.066 98.6C239.453 98.6 239.766 98.72 240.006 98.96C240.246 99.2 240.366 99.5133 240.366 99.9C240.366 100.287 240.246 100.6 240.006 100.84C239.766 101.08 239.453 101.2 239.066 101.2C238.68 101.2 238.366 101.08 238.126 100.84C237.886 100.6 237.766 100.287 237.766 99.9C237.766 99.5133 237.886 99.2 238.126 98.96C238.366 98.72 238.68 98.6 239.066 98.6ZM243.199 101V99.7C244.519 98.7267 245.619 97.8733 246.499 97.14C247.392 96.4067 248.105 95.74 248.639 95.14C249.172 94.54 249.552 93.9733 249.779 93.44C250.005 92.8933 250.119 92.3267 250.119 91.74C250.119 90.9533 249.865 90.32 249.359 89.84C248.865 89.3467 248.185 89.1 247.319 89.1C246.412 89.1 245.685 89.4 245.139 90C244.592 90.5867 244.272 91.3733 244.179 92.36L242.779 91.52C242.899 90.7467 243.145 90.0667 243.519 89.48C243.905 88.8933 244.419 88.4333 245.059 88.1C245.712 87.7667 246.485 87.6 247.379 87.6C248.059 87.6 248.665 87.7 249.199 87.9C249.745 88.1 250.212 88.3867 250.599 88.76C250.985 89.12 251.279 89.5533 251.479 90.06C251.692 90.5667 251.799 91.1267 251.799 91.74C251.799 92.5667 251.599 93.38 251.199 94.18C250.799 94.9667 250.139 95.7933 249.219 96.66C248.299 97.5267 247.052 98.4867 245.479 99.54V99.56C245.625 99.5467 245.825 99.54 246.079 99.54C246.345 99.5267 246.605 99.52 246.859 99.52C247.125 99.5067 247.325 99.5 247.459 99.5H252.079V101H243.199ZM259.839 87.6C260.546 87.6 261.159 87.7 261.679 87.9C262.212 88.0867 262.672 88.3867 263.059 88.8C263.446 89.2 263.772 89.7267 264.039 90.38L262.559 91.08C262.359 90.4667 262.032 89.9867 261.579 89.64C261.139 89.28 260.526 89.1 259.739 89.1C259.166 89.1 258.659 89.2467 258.219 89.54C257.779 89.82 257.406 90.2133 257.099 90.72C256.792 91.2267 256.559 91.82 256.399 92.5C256.252 93.18 256.179 93.9133 256.179 94.7C256.179 94.7267 256.179 94.7667 256.179 94.82C256.179 94.8733 256.179 94.9533 256.179 95.06H256.259C256.406 94.4867 256.672 94.0267 257.059 93.68C257.459 93.32 257.906 93.06 258.399 92.9C258.906 92.7267 259.399 92.64 259.879 92.64C260.772 92.64 261.552 92.8133 262.219 93.16C262.886 93.5067 263.399 94 263.759 94.64C264.132 95.28 264.319 96.04 264.319 96.92C264.319 97.7867 264.132 98.5467 263.759 99.2C263.386 99.84 262.859 100.333 262.179 100.68C261.512 101.027 260.712 101.2 259.779 101.2C258.672 101.2 257.739 100.907 256.979 100.32C256.219 99.7333 255.646 98.9333 255.259 97.92C254.872 96.8933 254.679 95.72 254.679 94.4C254.679 92.92 254.906 91.68 255.359 90.68C255.812 89.6667 256.426 88.9 257.199 88.38C257.986 87.86 258.866 87.6 259.839 87.6ZM259.759 94.18C259.186 94.18 258.679 94.3 258.239 94.54C257.812 94.7667 257.479 95.0867 257.239 95.5C256.999 95.9 256.879 96.3667 256.879 96.9C256.879 97.4067 257.006 97.8733 257.259 98.3C257.512 98.7133 257.852 99.0467 258.279 99.3C258.719 99.54 259.212 99.66 259.759 99.66C260.666 99.66 261.372 99.42 261.879 98.94C262.386 98.4467 262.639 97.7667 262.639 96.9C262.639 96.34 262.526 95.86 262.299 95.46C262.072 95.0467 261.746 94.7333 261.319 94.52C260.892 94.2933 260.372 94.18 259.759 94.18Z" fill="white"/>
<path d="M298.2 72V69.8C299.333 69.0933 300.3 68.4333 301.1 67.82C301.9 67.2067 302.547 66.6267 303.04 66.08C303.547 65.5333 303.92 65.0133 304.16 64.52C304.4 64.0267 304.52 63.5467 304.52 63.08C304.52 62.5733 304.367 62.1533 304.06 61.82C303.767 61.4733 303.327 61.3 302.74 61.3C302.113 61.3 301.627 61.5333 301.28 62C300.933 62.4533 300.747 63.12 300.72 64L297.78 63.1C297.807 62.1133 298.04 61.2867 298.48 60.62C298.933 59.9533 299.547 59.4533 300.32 59.12C301.093 58.7733 301.973 58.6 302.96 58.6C303.827 58.6 304.573 58.7267 305.2 58.98C305.84 59.22 306.36 59.5467 306.76 59.96C307.16 60.36 307.453 60.8133 307.64 61.32C307.84 61.8133 307.94 62.32 307.94 62.84C307.94 63.6933 307.72 64.4933 307.28 65.24C306.84 65.9733 306.2 66.6867 305.36 67.38C304.533 68.06 303.527 68.7467 302.34 69.44V69.46C302.567 69.4467 302.833 69.4333 303.14 69.42C303.447 69.4067 303.767 69.4 304.1 69.4C304.433 69.3867 304.733 69.38 305 69.38H308.1V72H298.2ZM312.734 72V64.4C312.734 64.0533 312.734 63.7 312.734 63.34C312.747 62.9667 312.754 62.5867 312.754 62.2C312.314 62.6 311.827 62.9533 311.294 63.26C310.761 63.5533 310.201 63.7533 309.614 63.86L309.294 61.02C309.641 60.9933 310.007 60.9067 310.394 60.76C310.794 60.6133 311.187 60.4333 311.574 60.22C311.961 60.0067 312.307 59.78 312.614 59.54C312.921 59.2867 313.154 59.04 313.314 58.8H316.054V72H312.734ZM323.387 58.6C324.601 58.6 325.614 58.86 326.427 59.38C327.254 59.8867 327.874 60.64 328.287 61.64C328.701 62.64 328.907 63.88 328.907 65.36C328.907 66.96 328.667 68.2667 328.187 69.28C327.721 70.28 327.074 71.02 326.247 71.5C325.421 71.9667 324.467 72.2 323.387 72.2C322.241 72.2 321.241 71.9733 320.387 71.52C319.547 71.0533 318.921 70.32 318.507 69.32L321.587 68.1C321.694 68.5667 321.894 68.9333 322.187 69.2C322.494 69.4667 322.914 69.6 323.447 69.6C323.861 69.6 324.221 69.52 324.527 69.36C324.834 69.1867 325.081 68.94 325.267 68.62C325.467 68.3 325.614 67.9133 325.707 67.46C325.801 66.9933 325.847 66.46 325.847 65.86C325.847 65.8067 325.847 65.76 325.847 65.72C325.847 65.6667 325.847 65.6067 325.847 65.54H325.787C325.641 65.94 325.401 66.2667 325.067 66.52C324.734 66.7733 324.354 66.9667 323.927 67.1C323.501 67.22 323.061 67.28 322.607 67.28C321.781 67.28 321.041 67.1133 320.387 66.78C319.747 66.4333 319.247 65.9533 318.887 65.34C318.527 64.7133 318.347 63.9867 318.347 63.16C318.347 62.2133 318.554 61.4067 318.967 60.74C319.394 60.06 319.981 59.5333 320.727 59.16C321.487 58.7867 322.374 58.6 323.387 58.6ZM323.387 61.24C322.814 61.24 322.354 61.4 322.007 61.72C321.674 62.04 321.507 62.4933 321.507 63.08C321.507 63.6133 321.681 64.0333 322.027 64.34C322.374 64.6333 322.827 64.78 323.387 64.78C323.747 64.78 324.067 64.7067 324.347 64.56C324.641 64.4133 324.867 64.2133 325.027 63.96C325.187 63.6933 325.267 63.38 325.267 63.02C325.267 62.6467 325.187 62.3333 325.027 62.08C324.867 61.8133 324.641 61.6067 324.347 61.46C324.067 61.3133 323.747 61.24 323.387 61.24ZM331.052 72V69.8C332.185 69.0933 333.152 68.4333 333.952 67.82C334.752 67.2067 335.398 66.6267 335.892 66.08C336.398 65.5333 336.772 65.0133 337.012 64.52C337.252 64.0267 337.372 63.5467 337.372 63.08C337.372 62.5733 337.218 62.1533 336.912 61.82C336.618 61.4733 336.178 61.3 335.592 61.3C334.965 61.3 334.478 61.5333 334.132 62C333.785 62.4533 333.598 63.12 333.572 64L330.632 63.1C330.658 62.1133 330.892 61.2867 331.332 60.62C331.785 59.9533 332.398 59.4533 333.172 59.12C333.945 58.7733 334.825 58.6 335.812 58.6C336.678 58.6 337.425 58.7267 338.052 58.98C338.692 59.22 339.212 59.5467 339.612 59.96C340.012 60.36 340.305 60.8133 340.492 61.32C340.692 61.8133 340.792 62.32 340.792 62.84C340.792 63.6933 340.572 64.4933 340.132 65.24C339.692 65.9733 339.052 66.6867 338.212 67.38C337.385 68.06 336.378 68.7467 335.192 69.44V69.46C335.418 69.4467 335.685 69.4333 335.992 69.42C336.298 69.4067 336.618 69.4 336.952 69.4C337.285 69.3867 337.585 69.38 337.852 69.38H340.952V72H331.052ZM348.026 58.64C349.026 58.64 349.892 58.7867 350.626 59.08C351.359 59.3733 351.926 59.7933 352.326 60.34C352.739 60.8733 352.946 61.5133 352.946 62.26C352.946 62.9667 352.772 63.5733 352.426 64.08C352.079 64.5867 351.566 64.9733 350.886 65.24V65.26C351.686 65.5267 352.306 65.92 352.746 66.44C353.186 66.9467 353.406 67.6 353.406 68.4C353.406 69.1733 353.186 69.8467 352.746 70.42C352.319 70.98 351.706 71.42 350.906 71.74C350.106 72.0467 349.146 72.2 348.026 72.2C346.919 72.2 345.966 72.0467 345.166 71.74C344.366 71.42 343.746 70.98 343.306 70.42C342.879 69.8467 342.666 69.1733 342.666 68.4C342.666 67.6 342.886 66.9467 343.326 66.44C343.766 65.92 344.386 65.5267 345.186 65.26V65.24C344.519 64.9867 344.006 64.6067 343.646 64.1C343.286 63.58 343.106 62.9667 343.106 62.26C343.106 61.5133 343.306 60.8733 343.706 60.34C344.119 59.7933 344.699 59.3733 345.446 59.08C346.192 58.7867 347.052 58.64 348.026 58.64ZM348.046 61.14C347.512 61.14 347.086 61.2733 346.766 61.54C346.446 61.8067 346.286 62.18 346.286 62.66C346.286 63.1267 346.446 63.5 346.766 63.78C347.086 64.0467 347.512 64.18 348.046 64.18C348.579 64.18 348.999 64.0467 349.306 63.78C349.626 63.5 349.786 63.1267 349.786 62.66C349.786 62.18 349.626 61.8067 349.306 61.54C348.999 61.2733 348.579 61.14 348.046 61.14ZM348.046 69.7C348.472 69.7 348.832 69.64 349.126 69.52C349.432 69.3867 349.666 69.1933 349.826 68.94C349.986 68.6867 350.066 68.3933 350.066 68.06C350.066 67.7133 349.986 67.42 349.826 67.18C349.666 66.9267 349.432 66.74 349.126 66.62C348.819 66.4867 348.459 66.42 348.046 66.42C347.632 66.42 347.266 66.4867 346.946 66.62C346.639 66.74 346.406 66.9267 346.246 67.18C346.086 67.42 346.006 67.7133 346.006 68.06C346.006 68.3933 346.086 68.6867 346.246 68.94C346.406 69.1933 346.639 69.3867 346.946 69.52C347.252 69.64 347.619 69.7 348.046 69.7ZM357.205 68.56C357.831 68.56 358.318 68.72 358.665 69.04C359.025 69.36 359.205 69.8067 359.205 70.38C359.205 70.94 359.025 71.38 358.665 71.7C358.318 72.02 357.831 72.18 357.205 72.18C356.591 72.18 356.105 72.02 355.745 71.7C355.385 71.38 355.205 70.94 355.205 70.38C355.205 69.8067 355.385 69.36 355.745 69.04C356.105 68.72 356.591 68.56 357.205 68.56ZM358.519 58.8H369.379V61.24C368.286 62.32 367.419 63.4333 366.779 64.58C366.153 65.7133 365.706 66.8933 365.439 68.12C365.186 69.3467 365.059 70.64 365.059 72H361.659C361.659 70.5467 361.839 69.1667 362.199 67.86C362.573 66.54 363.146 65.28 363.919 64.08C364.706 62.88 365.719 61.72 366.959 60.6L367.679 61.5H358.519V58.8ZM375.887 58.6C377.101 58.6 378.114 58.86 378.927 59.38C379.754 59.8867 380.374 60.64 380.787 61.64C381.201 62.64 381.407 63.88 381.407 65.36C381.407 66.96 381.167 68.2667 380.687 69.28C380.221 70.28 379.574 71.02 378.747 71.5C377.921 71.9667 376.967 72.2 375.887 72.2C374.741 72.2 373.741 71.9733 372.887 71.52C372.047 71.0533 371.421 70.32 371.007 69.32L374.087 68.1C374.194 68.5667 374.394 68.9333 374.687 69.2C374.994 69.4667 375.414 69.6 375.947 69.6C376.361 69.6 376.721 69.52 377.027 69.36C377.334 69.1867 377.581 68.94 377.767 68.62C377.967 68.3 378.114 67.9133 378.207 67.46C378.301 66.9933 378.347 66.46 378.347 65.86C378.347 65.8067 378.347 65.76 378.347 65.72C378.347 65.6667 378.347 65.6067 378.347 65.54H378.287C378.141 65.94 377.901 66.2667 377.567 66.52C377.234 66.7733 376.854 66.9667 376.427 67.1C376.001 67.22 375.561 67.28 375.107 67.28C374.281 67.28 373.541 67.1133 372.887 66.78C372.247 66.4333 371.747 65.9533 371.387 65.34C371.027 64.7133 370.847 63.9867 370.847 63.16C370.847 62.2133 371.054 61.4067 371.467 60.74C371.894 60.06 372.481 59.5333 373.227 59.16C373.987 58.7867 374.874 58.6 375.887 58.6ZM375.887 61.24C375.314 61.24 374.854 61.4 374.507 61.72C374.174 62.04 374.007 62.4933 374.007 63.08C374.007 63.6133 374.181 64.0333 374.527 64.34C374.874 64.6333 375.327 64.78 375.887 64.78C376.247 64.78 376.567 64.7067 376.847 64.56C377.141 64.4133 377.367 64.2133 377.527 63.96C377.687 63.6933 377.767 63.38 377.767 63.02C377.767 62.6467 377.687 62.3333 377.527 62.08C377.367 61.8133 377.141 61.6067 376.847 61.46C376.567 61.3133 376.247 61.24 375.887 61.24Z" fill="white"/>
<path d="M310 102C310 99.2386 312.239 97 315 97H365C367.761 97 370 99.2386 370 102V316H310V102Z" fill="#FF6F42"/>
<path d="M194 131C194 128.239 196.239 126 199 126H249C251.761 126 254 128.239 254 131V316H194V131Z" fill="#D7BCB3"/>
<path d="M69 248C69 245.239 71.2386 243 74 243H124C126.761 243 129 245.239 129 248V316H69V248Z" fill="#D7BAB1"/>
<rect x="0.5" y="0.5" width="442" height="315" rx="9.5" fill="#D9D9D9" fill-opacity="0.05" stroke="white"/>
</svg>
