<svg width="162" height="44" viewBox="0 0 162 44" fill="none" xmlns="http://www.w3.org/2000/svg">
<path d="M35.16 35L40 7.52H55.4C57.2933 7.52 58.8533 7.82667 60.08 8.44C61.3333 9.02667 62.2667 9.84 62.88 10.88C63.4933 11.92 63.8 13.12 63.8 14.48C63.8 16.1067 63.5467 17.5467 63.04 18.8C62.5333 20.0533 61.8133 21.12 60.88 22C59.9733 22.88 58.8667 23.5867 57.56 24.12L61.16 35H53.32L50.48 25.32H44.04L42.32 35H35.16ZM45 20H52.12C52.8667 20 53.56 19.8267 54.2 19.48C54.84 19.1067 55.36 18.5867 55.76 17.92C56.16 17.2533 56.36 16.4933 56.36 15.64C56.36 14.8133 56.12 14.16 55.64 13.68C55.16 13.2 54.4933 12.96 53.64 12.96H46.2L45 20ZM74.975 35.48C72.7617 35.48 70.8817 35.1867 69.335 34.6C67.815 33.9867 66.655 33.0533 65.855 31.8C65.055 30.5467 64.655 28.96 64.655 27.04C64.655 26.3733 64.6817 25.7333 64.735 25.12C64.7883 24.48 64.8817 23.8533 65.015 23.24C65.3883 21.2133 66.095 19.48 67.135 18.04C68.2017 16.5733 69.5617 15.44 71.215 14.64C72.895 13.84 74.8417 13.44 77.055 13.44C79.1883 13.44 80.975 13.7333 82.415 14.32C83.8817 14.88 84.9883 15.7467 85.735 16.92C86.4817 18.0933 86.855 19.6 86.855 21.44C86.855 21.9467 86.815 22.5467 86.735 23.24C86.6817 23.9067 86.5483 24.7467 86.335 25.76H71.215C71.1617 26 71.1217 26.2667 71.095 26.56C71.0683 26.8267 71.055 27.08 71.055 27.32C71.055 28.0933 71.1883 28.76 71.455 29.32C71.7217 29.8533 72.1483 30.2533 72.735 30.52C73.3217 30.7867 74.0683 30.92 74.975 30.92C75.6683 30.92 76.2817 30.8533 76.815 30.72C77.3483 30.56 77.8017 30.3333 78.175 30.04C78.5483 29.72 78.855 29.3467 79.095 28.92C79.3617 28.4933 79.535 28.0133 79.615 27.48H86.015C85.8017 28.76 85.3883 29.9067 84.775 30.92C84.1883 31.9067 83.415 32.7467 82.455 33.44C81.5217 34.1067 80.4283 34.6133 79.175 34.96C77.9217 35.3067 76.5217 35.48 74.975 35.48ZM71.855 22.12H80.255C80.3083 21.9333 80.335 21.7467 80.335 21.56C80.3617 21.3467 80.375 21.1733 80.375 21.04C80.375 20.3467 80.2417 19.7733 79.975 19.32C79.735 18.8667 79.3617 18.5333 78.855 18.32C78.375 18.08 77.8017 17.96 77.135 17.96C76.2017 17.96 75.3883 18.1333 74.695 18.48C74.0017 18.8 73.4283 19.2667 72.975 19.88C72.5217 20.4933 72.1483 21.24 71.855 22.12ZM88.7806 35L92.5006 13.92H97.8606V16.96H98.1406C98.7273 16.2133 99.4073 15.5867 100.181 15.08C100.954 14.5467 101.781 14.1467 102.661 13.88C103.567 13.5867 104.474 13.44 105.381 13.44C106.714 13.44 107.847 13.6533 108.781 14.08C109.714 14.48 110.434 15.0933 110.941 15.92C111.447 16.72 111.701 17.7467 111.701 19C111.701 19.4 111.674 19.8267 111.621 20.28C111.567 20.7067 111.501 21.16 111.421 21.64L109.061 35H102.501L104.741 22.32C104.767 22.08 104.794 21.8533 104.821 21.64C104.874 21.4 104.901 21.1867 104.901 21C104.901 20.4667 104.794 20.0267 104.581 19.68C104.394 19.3067 104.114 19.04 103.741 18.88C103.367 18.6933 102.914 18.6 102.381 18.6C101.794 18.6 101.221 18.7067 100.661 18.92C100.101 19.1067 99.6073 19.4 99.1806 19.8C98.754 20.2 98.3806 20.68 98.0606 21.24C97.7673 21.8 97.5673 22.4267 97.4606 23.12L95.3406 35H88.7806ZM123.377 35.48C122.044 35.48 120.79 35.36 119.617 35.12C118.47 34.88 117.457 34.5333 116.577 34.08C115.724 33.6 115.044 33.0133 114.537 32.32C114.057 31.6 113.817 30.7733 113.817 29.84C113.817 29.5733 113.844 29.2933 113.897 29C113.95 28.68 114.004 28.4267 114.057 28.24H120.257C120.23 28.3733 120.204 28.52 120.177 28.68C120.15 28.8133 120.137 28.92 120.137 29C120.137 29.48 120.284 29.8933 120.577 30.24C120.897 30.56 121.324 30.8 121.857 30.96C122.417 31.0933 123.017 31.16 123.657 31.16C124.084 31.16 124.537 31.1333 125.017 31.08C125.497 31 125.937 30.88 126.337 30.72C126.764 30.56 127.097 30.36 127.337 30.12C127.577 29.8533 127.697 29.52 127.697 29.12C127.697 28.7467 127.564 28.44 127.297 28.2C127.057 27.96 126.71 27.7467 126.257 27.56C125.83 27.3733 125.324 27.2133 124.737 27.08C124.177 26.9467 123.577 26.8 122.937 26.64C122.11 26.4267 121.27 26.2 120.417 25.96C119.59 25.6933 118.83 25.36 118.137 24.96C117.444 24.5333 116.884 24.0133 116.457 23.4C116.03 22.76 115.817 21.96 115.817 21C115.817 19.6933 116.084 18.56 116.617 17.6C117.177 16.64 117.937 15.8533 118.897 15.24C119.884 14.6267 121.017 14.1733 122.297 13.88C123.577 13.56 124.95 13.4 126.417 13.4C127.59 13.4 128.71 13.5067 129.777 13.72C130.844 13.9333 131.79 14.2533 132.617 14.68C133.47 15.1067 134.137 15.64 134.617 16.28C135.097 16.92 135.337 17.6667 135.337 18.52C135.337 18.8667 135.297 19.2 135.217 19.52C135.164 19.8133 135.124 20.0267 135.097 20.16H128.937C128.964 20.0267 128.977 19.92 128.977 19.84C129.004 19.7333 129.017 19.6533 129.017 19.6C129.017 19.1733 128.884 18.8267 128.617 18.56C128.377 18.2933 128.03 18.0933 127.577 17.96C127.124 17.8267 126.577 17.76 125.937 17.76C125.484 17.76 125.044 17.8 124.617 17.88C124.19 17.96 123.804 18.08 123.457 18.24C123.137 18.3733 122.884 18.56 122.697 18.8C122.51 19.0133 122.417 19.2667 122.417 19.56C122.417 19.96 122.59 20.2933 122.937 20.56C123.31 20.8 123.79 21 124.377 21.16C124.99 21.32 125.63 21.4933 126.297 21.68C127.15 21.8933 128.044 22.12 128.977 22.36C129.91 22.5733 130.777 22.88 131.577 23.28C132.404 23.68 133.07 24.2267 133.577 24.92C134.084 25.5867 134.337 26.4533 134.337 27.52C134.337 29.0133 134.044 30.2667 133.457 31.28C132.897 32.2933 132.11 33.1067 131.097 33.72C130.084 34.3333 128.91 34.7733 127.577 35.04C126.27 35.3333 124.87 35.48 123.377 35.48ZM144.861 35.48C143.341 35.48 142.021 35.1867 140.901 34.6C139.781 33.9867 138.914 33.0933 138.301 31.92C137.714 30.7467 137.421 29.3067 137.421 27.6C137.421 27.0667 137.448 26.52 137.501 25.96C137.554 25.3733 137.634 24.76 137.741 24.12C138.168 21.6933 138.834 19.6933 139.741 18.12C140.674 16.5467 141.821 15.3733 143.181 14.6C144.541 13.8267 146.074 13.44 147.781 13.44C148.688 13.44 149.514 13.5467 150.261 13.76C151.034 13.9733 151.714 14.3067 152.301 14.76C152.888 15.1867 153.381 15.76 153.781 16.48H154.061L155.621 13.92H160.901L159.941 19.08C159.781 20.04 159.608 21.0133 159.421 22C159.234 22.9867 159.061 23.92 158.901 24.8C158.741 25.68 158.594 26.48 158.461 27.2C158.328 27.92 158.221 28.5067 158.141 28.96C158.088 29.4133 158.061 29.7067 158.061 29.84C158.061 30.2133 158.154 30.4933 158.341 30.68C158.554 30.84 158.821 30.92 159.141 30.92H160.381L159.701 34.76C159.248 34.9467 158.714 35.1067 158.101 35.24C157.488 35.4 156.848 35.48 156.181 35.48C155.381 35.48 154.674 35.36 154.061 35.12C153.474 34.9067 152.994 34.56 152.621 34.08C152.434 33.8667 152.274 33.6 152.141 33.28C152.034 32.96 151.954 32.6267 151.901 32.28H151.621C150.768 33.32 149.754 34.12 148.581 34.68C147.408 35.2133 146.168 35.48 144.861 35.48ZM147.421 30.36C148.088 30.36 148.701 30.2267 149.261 29.96C149.821 29.6933 150.314 29.32 150.741 28.84C151.168 28.36 151.528 27.7867 151.821 27.12C152.114 26.4533 152.328 25.72 152.461 24.92C152.568 24.3867 152.634 23.96 152.661 23.64C152.714 23.2933 152.741 23.0133 152.741 22.8C152.768 22.56 152.781 22.36 152.781 22.2C152.781 21.4533 152.661 20.8133 152.421 20.28C152.208 19.72 151.861 19.2933 151.381 19C150.901 18.7067 150.274 18.56 149.501 18.56C148.514 18.56 147.688 18.76 147.021 19.16C146.354 19.5333 145.821 20.12 145.421 20.92C145.021 21.6933 144.714 22.64 144.501 23.76C144.368 24.4533 144.261 25 144.181 25.4C144.128 25.8 144.088 26.1333 144.061 26.4C144.061 26.64 144.061 26.84 144.061 27C144.061 28.0933 144.314 28.9333 144.821 29.52C145.354 30.08 146.221 30.36 147.421 30.36Z" fill="#FF6F42"/>
<mask id="mask0_5_35" style="mask-type:alpha" maskUnits="userSpaceOnUse" x="0" y="7" width="32" height="28">
<rect y="7.5" width="32" height="3" fill="url(#paint0_linear_5_35)"/>
<rect y="12" width="32" height="3" fill="url(#paint1_linear_5_35)"/>
<rect y="17" width="32" height="3" fill="url(#paint2_linear_5_35)"/>
<rect y="22" width="32" height="3" fill="url(#paint3_linear_5_35)"/>
<rect y="27" width="32" height="3" fill="url(#paint4_linear_5_35)"/>
<rect y="32" width="32" height="3" fill="url(#paint5_linear_5_35)"/>
</mask>
<g mask="url(#mask0_5_35)">
<path d="M1.66667 -31H39L20.3333 73H-17L1.66667 -31Z" fill="#E8DDD9"/>
</g>
<defs>
<linearGradient id="paint0_linear_5_35" x1="0" y1="9" x2="32" y2="9" gradientUnits="userSpaceOnUse">
<stop stop-color="#999999" stop-opacity="0"/>
<stop offset="0.515" stop-color="white"/>
<stop offset="1" stop-color="white"/>
</linearGradient>
<linearGradient id="paint1_linear_5_35" x1="0" y1="13.5" x2="32" y2="13.5" gradientUnits="userSpaceOnUse">
<stop stop-color="#999999" stop-opacity="0"/>
<stop offset="0.515" stop-color="white"/>
<stop offset="1" stop-color="white"/>
</linearGradient>
<linearGradient id="paint2_linear_5_35" x1="0" y1="18.5" x2="32" y2="18.5" gradientUnits="userSpaceOnUse">
<stop stop-color="#999999" stop-opacity="0"/>
<stop offset="0.515" stop-color="white"/>
<stop offset="1" stop-color="white"/>
</linearGradient>
<linearGradient id="paint3_linear_5_35" x1="0" y1="23.5" x2="32" y2="23.5" gradientUnits="userSpaceOnUse">
<stop stop-color="#999999" stop-opacity="0"/>
<stop offset="0.515" stop-color="white"/>
<stop offset="1" stop-color="white"/>
</linearGradient>
<linearGradient id="paint4_linear_5_35" x1="0" y1="28.5" x2="32" y2="28.5" gradientUnits="userSpaceOnUse">
<stop stop-color="#999999" stop-opacity="0"/>
<stop offset="0.515" stop-color="white"/>
<stop offset="1" stop-color="white"/>
</linearGradient>
<linearGradient id="paint5_linear_5_35" x1="0" y1="33.5" x2="32" y2="33.5" gradientUnits="userSpaceOnUse">
<stop stop-color="#999999" stop-opacity="0"/>
<stop offset="0.515" stop-color="white"/>
<stop offset="1" stop-color="white"/>
</linearGradient>
</defs>
</svg>
